<svg width="32" height="32" viewBox="0 0 32 32" fill="none" xmlns="http://www.w3.org/2000/svg">
  <defs>
    <linearGradient id="faviconGradient" x1="0%" y1="0%" x2="100%" y2="100%">
      <stop offset="0%" style="stop-color:#6366F1;stop-opacity:1" />
      <stop offset="100%" style="stop-color:#4F46E5;stop-opacity:1" />
    </linearGradient>
    <linearGradient id="faviconAccent" x1="0%" y1="0%" x2="100%" y2="100%">
      <stop offset="0%" style="stop-color:#10B981;stop-opacity:1" />
      <stop offset="100%" style="stop-color:#059669;stop-opacity:1" />
    </linearGradient>
  </defs>
  
  <!-- Background circle -->
  <circle cx="16" cy="16" r="16" fill="url(#faviconGradient)"/>
  
  <!-- Stylized P -->
  <path d="M 8 6 L 8 26 L 14 26 C 17 26 19 24 19 21 C 19 18 17 16 14 16 L 10 16 L 10 6 Z" fill="white"/>
  
  <!-- Stylized S (compressed) -->
  <path d="M 21 8 C 21 7 22 6 24 6 L 26 6 L 26 8 L 24 8 C 23 8 22 9 22 10 C 22 11 23 12 24 12 L 26 12 L 26 14 L 24 14 C 22 14 21 12 21 11" fill="url(#faviconAccent)"/>
  
  <!-- Compression lines -->
  <path d="M 6 10 L 8 10" stroke="white" stroke-width="1" stroke-linecap="round" opacity="0.8"/>
  <path d="M 6 13 L 8 13" stroke="white" stroke-width="1" stroke-linecap="round" opacity="0.8"/>
  
  <!-- Optimized compression lines (fewer) -->
  <path d="M 22 10 L 24 10" stroke="white" stroke-width="1" stroke-linecap="round" opacity="0.9"/>
</svg> 