<svg width="40" height="40" viewBox="0 0 40 40" fill="none" xmlns="http://www.w3.org/2000/svg">
  <defs>
    <linearGradient id="iconGradient" x1="0%" y1="0%" x2="100%" y2="100%">
      <stop offset="0%" style="stop-color:#22C55E;stop-opacity:1" />
      <stop offset="100%" style="stop-color:#16A34A;stop-opacity:1" />
    </linearGradient>
  </defs>
  <circle cx="20" cy="20" r="20" fill="url(#iconGradient)"/>
  <path d="M 10 8 L 10 32 L 18 32 C 22 32 24 30 24 26 C 24 22 22 20 18 20 L 14 20 L 14 8 Z" fill="white"/>
  <path d="M 26 12 C 26 10 28 8 30 8 L 34 8 L 34 12 L 30 12 C 29 12 28 13 28 14 C 28 15 29 16 30 16 L 34 16 L 34 20 L 30 20 C 28 20 26 18 26 16" fill="white" opacity="0.9"/>
</svg> 