<svg width="40" height="40" viewBox="0 0 40 40" fill="none" xmlns="http://www.w3.org/2000/svg">
  <defs>
    <linearGradient id="iconGradient" x1="0%" y1="0%" x2="100%" y2="100%">
      <stop offset="0%" style="stop-color:#6366F1;stop-opacity:1" />
      <stop offset="100%" style="stop-color:#4F46E5;stop-opacity:1" />
    </linearGradient>
    <linearGradient id="iconAccent" x1="0%" y1="0%" x2="100%" y2="100%">
      <stop offset="0%" style="stop-color:#10B981;stop-opacity:1" />
      <stop offset="100%" style="stop-color:#059669;stop-opacity:1" />
    </linearGradient>
  </defs>
  
  <!-- Background circle -->
  <circle cx="20" cy="20" r="20" fill="url(#iconGradient)"/>
  
  <!-- Stylized P -->
  <path d="M 10 8 L 10 32 L 18 32 C 22 32 24 30 24 26 C 24 22 22 20 18 20 L 14 20 L 14 8 Z" fill="white"/>
  
  <!-- Stylized S (compressed) -->
  <path d="M 26 12 C 26 10 28 8 30 8 L 34 8 L 34 12 L 30 12 C 29 12 28 13 28 14 C 28 15 29 16 30 16 L 34 16 L 34 20 L 30 20 C 28 20 26 18 26 16" fill="url(#iconAccent)"/>
  
  <!-- Compression lines -->
  <path d="M 8 12 L 12 12" stroke="white" stroke-width="1.5" stroke-linecap="round" opacity="0.8"/>
  <path d="M 8 16 L 12 16" stroke="white" stroke-width="1.5" stroke-linecap="round" opacity="0.8"/>
  <path d="M 8 20 L 12 20" stroke="white" stroke-width="1.5" stroke-linecap="round" opacity="0.8"/>
  
  <!-- Optimized compression lines (fewer) -->
  <path d="M 28 14 L 32 14" stroke="white" stroke-width="1.5" stroke-linecap="round" opacity="0.9"/>
  <path d="M 28 18 L 32 18" stroke="white" stroke-width="1.5" stroke-linecap="round" opacity="0.9"/>
</svg> 