<svg xmlns="http://www.w3.org/2000/svg" viewBox="0 0 600 200">
  <!-- SVG with refined mountain curves: sharper than before but still smooth -->

  <defs>
    <clipPath id="imgClip">
      <rect x="3" y="3" width="94" height="94" rx="12" ry="12" />
    </clipPath>
  </defs>

  <!-- Outer frame -->
  <rect x="20" y="20" width="100" height="100" rx="12" fill="#8BC34A" />
  <rect x="23" y="23" width="94" height="94" rx="12" fill="none" stroke="#FFFFFF" stroke-width="6" stroke-linejoin="round" />

  <!-- Clipped artwork -->
  <g transform="translate(20,20)" clip-path="url(#imgClip)">
    <rect x="0" y="0" width="100" height="100" fill="url(#skyGrad)" />
    <circle cx="28" cy="24" r="10" fill="#FFFFFF" />

    <!-- Back mountain: less rounded peaks for more definition -->
    <path d="M0 80 C20 55 40 58 60 78 C78 95 90 84 100 70 L100 100 L0 100 Z" fill="#4CAF50" />

    <!-- Front mountain: defined ridges but still smooth -->
    <path d="M0 88 C20 68 42 70 60 86 C76 98 88 90 100 78 L100 100 L0 100 Z" fill="#388E3C" />

    <!-- Ridge highlight -->
    <path d="M4 84 C24 64 44 66 62 84 C78 96 92 86 98 76" fill="none" stroke="#FFFFFF" stroke-opacity="0.12" stroke-width="2" stroke-linecap="round" />
  </g>

  <!-- Text -->
  <text x="150" y="70" font-family="'Poppins', sans-serif" font-size="32" font-weight="700" fill="#FFFFFF">PIXEL SQUEEZE</text>
  <text x="150" y="102" font-family="'Poppins', sans-serif" font-size="14" font-weight="600" fill="#A8E6A1" letter-spacing="4">OPTIMIZE · COMPRESS · DELIVER</text>

  <defs>
    <linearGradient id="skyGrad" x1="0%" y1="0%" x2="0%" y2="100%">
      <stop offset="0%" stop-color="#A8E6A1" />
      <stop offset="100%" stop-color="#8BC34A" />
    </linearGradient>
  </defs>
</svg> 