<svg xmlns="http://www.w3.org/2000/svg" width="800" height="450" viewBox="0 0 800 450" fill="none">
  <defs>
    <linearGradient id="g" x1="0" y1="0" x2="1" y2="1">
      <stop offset="0%" stop-color="#22C55E"/>
      <stop offset="100%" stop-color="#16A34A"/>
    </linearGradient>
  </defs>
  <rect x="0" y="0" width="800" height="450" rx="24" fill="#F0FDF4"/>
  <g transform="translate(40,40)">
    <rect x="0" y="0" width="480" height="320" rx="16" fill="#fff" stroke="#DCFCE7"/>
    <rect x="24" y="24" width="168" height="12" rx="6" fill="#86EFAC"/>
    <rect x="24" y="52" width="120" height="10" rx="5" fill="#BBF7D0"/>
    <rect x="24" y="76" width="320" height="160" rx="10" fill="#F0FDF4" stroke="#DCFCE7"/>
    <rect x="24" y="252" width="280" height="12" rx="6" fill="#DCFCE7"/>
  </g>
  <g transform="translate(540,60)">
    <circle cx="36" cy="36" r="36" fill="url(#g)"/>
    <rect x="96" y="16" width="160" height="12" rx="6" fill="#065F46" opacity="0.15"/>
    <rect x="96" y="40" width="120" height="10" rx="5" fill="#065F46" opacity="0.1"/>
    <g transform="translate(0,110)">
      <rect x="0" y="0" width="256" height="10" rx="5" fill="#DCFCE7"/>
      <rect x="0" y="22" width="220" height="10" rx="5" fill="#DCFCE7"/>
      <rect x="0" y="44" width="180" height="10" rx="5" fill="#DCFCE7"/>
    </g>
  </g>
</svg>
